<svg id="Layer_1" enable-background="new 0 0 65 65" viewBox="0 0 65 65" xmlns="http://www.w3.org/2000/svg" xmlns:xlink="http://www.w3.org/1999/xlink"><linearGradient id="SVGID_1_" gradientUnits="userSpaceOnUse" x1="22.749" x2="42.251" y1="17.251" y2="17.251"><stop offset="0" stop-color="#f3aa0f"/><stop offset="1" stop-color="#fed46e"/></linearGradient><linearGradient id="SVGID_2_" gradientUnits="userSpaceOnUse" x1="17.859" x2="39.705" y1="59.226" y2="37.381"><stop offset="0" stop-color="#4656a1"/><stop offset="1" stop-color="#84c8d3"/></linearGradient><g><path d="m54.87.5h-44.74c-5.32 0-9.63 4.31-9.63 9.63v44.75c0 5.32 4.31 9.63 9.63 9.63h44.75c5.32 0 9.63-4.31 9.63-9.63v-44.75c-.01-5.32-4.32-9.63-9.64-9.63z" fill="#f4f4f6"/><path d="m32.5 27c5.38 0 9.75-4.37 9.75-9.75s-4.37-9.75-9.75-9.75-9.75 4.37-9.75 9.75 4.37 9.75 9.75 9.75z" fill="url(#SVGID_1_)"/><path d="m41.96 28.82c-.87-.44-1.92-.22-2.54.53l-6.92 8.35-6.92-8.34c-.62-.75-1.67-.97-2.54-.53-7.13 3.61-11.55 10.79-11.55 18.75 0 2.35 1.26 5.62 7.28 7.84 3.66 1.35 8.54 2.09 13.74 2.09 9.7 0 21.02-2.6 21.02-9.93-.01-7.97-4.44-15.15-11.57-18.76z" fill="url(#SVGID_2_)"/></g></svg>