<svg width="73" height="72" viewBox="0 0 73 72" fill="none" xmlns="http://www.w3.org/2000/svg">
<path d="M36.5004 16.533C38.1834 16.533 39.8574 17.595 41.1324 19.719L58.8684 49.281C61.4214 53.526 59.4504 57 54.5004 57H18.5004C13.5504 57 11.5794 53.523 14.1324 49.281L31.8684 19.719C33.1434 17.595 34.8174 16.533 36.5004 16.533ZM36.5004 10.533C32.6124 10.533 29.0544 12.753 26.7234 16.626L8.9874 46.194C6.6294 50.121 6.3714 54.309 8.2824 57.684C10.1934 61.059 13.9194 63 18.5004 63H54.5004C59.0814 63 62.8104 61.062 64.7184 57.687C66.6264 54.312 66.3714 50.124 64.0134 46.197L46.2774 16.635C43.9464 12.753 40.3884 10.533 36.5004 10.533Z" fill="#B60F0F"/>
<path d="M36.4996 51.9001C38.6535 51.9001 40.3996 50.154 40.3996 48.0001C40.3996 45.8462 38.6535 44.1001 36.4996 44.1001C34.3457 44.1001 32.5996 45.8462 32.5996 48.0001C32.5996 50.154 34.3457 51.9001 36.4996 51.9001Z" fill="#B60F0F"/>
<path d="M40.9997 30C40.9997 27.51 38.9867 25.5 36.4997 25.5C35.7634 25.5009 35.0385 25.6824 34.3887 26.0286C33.7389 26.3748 33.184 26.8752 32.7727 27.4859C32.3613 28.0966 32.1061 28.7989 32.0294 29.5311C31.9527 30.2634 32.0568 31.0033 32.3327 31.686C33.9947 35.814 36.4997 42 36.4997 42L40.6727 31.686C40.8767 31.167 40.9997 30.597 40.9997 30Z" fill="#B60F0F"/>
</svg>
