<svg width="6" height="4" viewBox="0 0 6 4" fill="none" xmlns="http://www.w3.org/2000/svg">
<path d="M2.62326 3.57L0.225261 0.829C-0.0577387 0.5065 0.172261 1.83853e-07 0.601761 1.83853e-07H5.39776C5.49388 -8.22297e-05 5.58799 0.0275439 5.66882 0.0795705C5.74964 0.131597 5.81376 0.205819 5.85349 0.293347C5.89321 0.380875 5.90687 0.477999 5.89282 0.573089C5.87877 0.668178 5.83761 0.757203 5.77426 0.8295L3.37626 3.5695C3.32933 3.6232 3.27145 3.66625 3.20652 3.69574C3.14158 3.72523 3.07108 3.74049 2.99976 3.74049C2.92844 3.74049 2.85794 3.72523 2.79301 3.69574C2.72807 3.66625 2.67019 3.6232 2.62326 3.5695V3.57Z" fill="#979797"/>
</svg>
